<svg width="1185" height="477" viewBox="0 0 1185 477" fill="none" xmlns="http://www.w3.org/2000/svg">
<path opacity="0.9" d="M238.066 471.11C366.773 471.11 471.11 366.773 471.11 238.066C471.11 109.36 366.773 5.02252 238.066 5.02252C109.36 5.02252 5.02246 109.36 5.02246 238.066C5.02246 366.773 109.36 471.11 238.066 471.11Z" stroke="white" stroke-width="10.045"/>
<path d="M97.4365 338.516C97.4365 204.583 124.223 137.616 177.796 137.616C217.976 137.616 238.066 171.099 238.066 238.066C238.066 171.099 258.156 137.616 298.336 137.616C351.91 137.616 378.696 204.583 378.696 338.516" stroke="white" stroke-width="14.063" stroke-linecap="round"/>
<path d="M97.4362 354.588C106.313 354.588 113.508 347.392 113.508 338.516C113.508 329.64 106.313 322.444 97.4362 322.444C88.5599 322.444 81.3643 329.64 81.3643 338.516C81.3643 347.392 88.5599 354.588 97.4362 354.588Z" fill="white"/>
<g filter="url(#filter0_f_22_78)">
<path d="M238.067 258.156C249.162 258.156 258.157 249.162 258.157 238.066C258.157 226.971 249.162 217.976 238.067 217.976C226.971 217.976 217.977 226.971 217.977 238.066C217.977 249.162 226.971 258.156 238.067 258.156Z" fill="white"/>
</g>
<path d="M378.696 354.588C387.572 354.588 394.768 347.392 394.768 338.516C394.768 329.64 387.572 322.444 378.696 322.444C369.82 322.444 362.624 329.64 362.624 338.516C362.624 347.392 369.82 354.588 378.696 354.588Z" fill="white"/>
<path d="M238.066 193.868C244.723 193.868 250.12 188.471 250.12 181.814C250.12 175.157 244.723 169.76 238.066 169.76C231.409 169.76 226.012 175.157 226.012 181.814C226.012 188.471 231.409 193.868 238.066 193.868Z" fill="white"/>
<path d="M648.754 150.07C646.053 150.22 644.066 150.52 642.791 150.97C641.591 151.42 640.766 152.282 640.316 153.557C639.866 154.832 639.641 156.895 639.641 159.745V215.547C639.641 218.397 639.866 220.46 640.316 221.735C640.766 223.01 641.591 223.872 642.791 224.322C644.066 224.772 646.053 225.072 648.754 225.222V227.472C645.303 227.247 640.541 227.135 634.466 227.135C628.015 227.135 623.215 227.247 620.065 227.472V225.222C622.765 225.072 624.715 224.772 625.915 224.322C627.19 223.872 628.053 223.01 628.503 221.735C628.953 220.46 629.178 218.397 629.178 215.547V155.245L602.064 228.035H600.264L571.913 155.02V214.422C571.913 217.347 572.138 219.522 572.588 220.947C573.113 222.372 574.088 223.422 575.513 224.097C576.939 224.697 579.151 225.072 582.151 225.222V227.472C579.451 227.247 575.626 227.135 570.676 227.135C566.176 227.135 562.688 227.247 560.213 227.472V225.222C562.838 225.072 564.788 224.697 566.063 224.097C567.338 223.422 568.201 222.372 568.651 220.947C569.101 219.447 569.326 217.272 569.326 214.422V159.745C569.326 156.895 569.101 154.832 568.651 153.557C568.201 152.282 567.338 151.42 566.063 150.97C564.863 150.52 562.913 150.22 560.213 150.07V147.82C562.688 148.045 566.176 148.157 570.676 148.157C574.576 148.157 577.764 148.045 580.239 147.82L604.99 212.959L629.178 148.157H634.466C640.541 148.157 645.303 148.045 648.754 147.82V150.07ZM715.816 213.072C715.816 217.347 716.079 222.147 716.604 227.472C711.504 227.247 702.916 227.135 690.841 227.135C676.44 227.135 665.565 227.247 658.214 227.472V225.222C660.915 225.072 662.865 224.772 664.065 224.322C665.34 223.872 666.202 223.01 666.652 221.735C667.102 220.46 667.327 218.397 667.327 215.547V159.745C667.327 156.895 667.102 154.832 666.652 153.557C666.202 152.282 665.34 151.42 664.065 150.97C662.865 150.52 660.915 150.22 658.214 150.07V147.82C665.565 148.045 676.44 148.157 690.841 148.157C701.866 148.157 709.704 148.045 714.354 147.82C713.829 152.77 713.566 157.195 713.566 161.095C713.566 164.02 713.679 166.345 713.904 168.07H711.316C710.791 163.195 710.116 159.595 709.291 157.27C708.466 154.87 707.079 153.145 705.129 152.095C703.179 150.97 700.216 150.407 696.241 150.407H686.903C684.203 150.407 682.215 150.632 680.94 151.082C679.74 151.457 678.915 152.282 678.465 153.557C678.015 154.832 677.79 156.895 677.79 159.745V186.296H685.215C687.84 186.296 689.866 185.696 691.291 184.496C692.716 183.221 693.653 181.758 694.103 180.108C694.628 178.383 695.041 176.246 695.341 173.696L695.678 171.446H698.266C698.041 174.596 697.928 178.121 697.928 182.021V187.421C697.928 191.246 698.153 196.571 698.603 203.397H696.016C695.941 202.872 695.716 201.072 695.341 197.996C694.966 194.846 693.916 192.484 692.191 190.909C690.541 189.334 688.215 188.546 685.215 188.546H677.79V215.547C677.79 218.397 678.015 220.46 678.465 221.735C678.915 223.01 679.74 223.872 680.94 224.322C682.215 224.697 684.203 224.885 686.903 224.885H695.116C699.766 224.885 703.291 224.285 705.691 223.085C708.166 221.81 709.966 219.822 711.091 217.122C712.216 214.347 713.041 210.297 713.566 204.972H716.154C715.929 206.997 715.816 209.697 715.816 213.072ZM788.649 147.82C788.124 153.145 787.861 157.945 787.861 162.22C787.861 165.97 787.974 169.045 788.199 171.446H785.611C785.011 165.67 784.261 161.395 783.361 158.62C782.461 155.77 780.886 153.707 778.636 152.432C776.386 151.082 772.936 150.407 768.285 150.407H762.21V214.422C762.21 217.572 762.51 219.86 763.11 221.285C763.71 222.71 764.76 223.685 766.26 224.21C767.76 224.735 770.198 225.072 773.573 225.222V227.472C769.673 227.247 764.16 227.135 757.035 227.135C749.535 227.135 743.985 227.247 740.384 227.472V225.222C743.76 225.072 746.197 224.735 747.697 224.21C749.197 223.685 750.247 222.71 750.847 221.285C751.447 219.86 751.747 217.572 751.747 214.422V150.407H745.672C741.022 150.407 737.572 151.082 735.322 152.432C733.072 153.707 731.497 155.77 730.597 158.62C729.697 161.395 728.947 165.67 728.347 171.446H725.759C725.984 169.045 726.096 165.97 726.096 162.22C726.096 157.945 725.834 153.145 725.309 147.82C731.534 148.045 742.11 148.157 757.035 148.157C771.886 148.157 782.423 148.045 788.649 147.82ZM850.438 218.022C852.238 222.672 854.826 225.072 858.201 225.222V227.472C855.201 227.247 851.188 227.135 846.163 227.135C839.713 227.135 834.912 227.247 831.762 227.472V225.222C834.612 225.072 836.637 224.735 837.838 224.21C839.113 223.61 839.75 222.56 839.75 221.06C839.75 219.785 839.3 218.022 838.4 215.772L831.537 197.321H804.311L799.699 209.247C798.199 213.297 797.449 216.372 797.449 218.472C797.449 220.797 798.236 222.485 799.811 223.535C801.461 224.585 803.936 225.147 807.236 225.222V227.472C802.961 227.247 798.649 227.135 794.298 227.135C790.923 227.135 788.111 227.247 785.861 227.472V225.222C789.611 224.322 792.573 221.06 794.749 215.435L821.187 147.257H822.987L850.438 218.022ZM830.637 195.071L818.037 161.433L805.211 195.071H830.637ZM897.392 185.396C905.642 186.521 911.53 188.921 915.055 192.596C918.58 196.196 920.342 200.547 920.342 205.647C920.342 209.922 919.255 213.709 917.08 217.01C914.905 220.31 911.792 222.897 907.742 224.772C903.692 226.572 898.892 227.472 893.342 227.472C891.316 227.472 889.591 227.435 888.166 227.36C883.366 227.21 878.641 227.135 873.991 227.135C867.841 227.135 863.19 227.247 860.04 227.472V225.222C862.74 225.072 864.691 224.772 865.891 224.322C867.166 223.872 868.028 223.01 868.478 221.735C868.928 220.46 869.153 218.397 869.153 215.547V159.745C869.153 156.895 868.928 154.832 868.478 153.557C868.028 152.282 867.166 151.42 865.891 150.97C864.691 150.52 862.74 150.22 860.04 150.07V147.82C863.19 148.045 867.766 148.157 873.766 148.157L885.916 148.045C887.341 147.97 888.954 147.932 890.754 147.932C898.404 147.932 904.254 149.545 908.305 152.77C912.43 155.995 914.492 160.27 914.492 165.595C914.492 169.945 913.105 173.846 910.33 177.296C907.63 180.746 903.317 183.371 897.392 185.171V185.396ZM887.941 150.07C885.616 150.07 883.854 150.332 882.654 150.857C881.529 151.382 880.741 152.32 880.291 153.67C879.841 155.02 879.616 157.045 879.616 159.745V185.171H887.154C893.304 185.171 897.579 183.521 899.979 180.221C902.454 176.846 903.692 172.383 903.692 166.833C903.692 161.208 902.454 157.008 899.979 154.232C897.504 151.457 893.492 150.07 887.941 150.07ZM888.054 224.885C902.079 224.885 909.092 218.322 909.092 205.197C909.092 199.271 907.48 194.771 904.254 191.696C901.104 188.621 896.042 187.084 889.066 187.084H879.616V215.547C879.616 218.247 879.841 220.235 880.291 221.51C880.741 222.785 881.529 223.685 882.654 224.21C883.854 224.66 885.654 224.885 888.054 224.885ZM998.894 221.847C997.169 224.397 995.444 226.235 993.719 227.36C991.994 228.485 989.706 229.048 986.856 229.048C983.781 229.048 981.231 228.147 979.206 226.347C977.256 224.547 975.793 221.397 974.818 216.897L972.343 205.647C971.443 201.747 970.58 198.746 969.755 196.646C969.005 194.546 967.843 192.859 966.268 191.584C964.693 190.309 962.48 189.671 959.63 189.671H948.942V215.547C948.942 218.397 949.167 220.46 949.617 221.735C950.067 223.01 950.892 223.872 952.092 224.322C953.367 224.772 955.355 225.072 958.055 225.222V227.472C954.605 227.247 949.842 227.135 943.767 227.135C937.317 227.135 932.517 227.247 929.366 227.472V225.222C932.067 225.072 934.017 224.772 935.217 224.322C936.492 223.872 937.354 223.01 937.804 221.735C938.254 220.46 938.479 218.397 938.479 215.547V159.745C938.479 156.895 938.254 154.832 937.804 153.557C937.354 152.282 936.492 151.42 935.217 150.97C934.017 150.52 932.067 150.22 929.366 150.07V147.82C932.517 148.045 937.092 148.157 943.092 148.157L955.242 148.045C956.667 147.97 958.28 147.932 960.08 147.932C968.78 147.932 975.456 149.77 980.106 153.445C984.831 157.045 987.194 161.733 987.194 167.508C987.194 170.433 986.481 173.396 985.056 176.396C983.706 179.321 981.381 181.983 978.081 184.383C974.856 186.709 970.618 188.284 965.368 189.109L966.718 189.334C971.668 190.159 975.268 191.659 977.518 193.834C979.768 196.009 981.418 199.459 982.468 204.184L985.281 215.66C986.031 219.11 986.819 221.51 987.644 222.86C988.469 224.21 989.594 224.885 991.019 224.885C992.294 224.885 993.344 224.547 994.169 223.872C995.069 223.197 996.081 222.11 997.206 220.61L998.894 221.847ZM957.267 150.07C954.942 150.07 953.18 150.332 951.98 150.857C950.855 151.382 950.067 152.32 949.617 153.67C949.167 155.02 948.942 157.045 948.942 159.745V187.421H956.48C963.905 187.421 969.005 185.771 971.78 182.471C974.556 179.171 975.943 174.596 975.943 168.745C975.943 162.595 974.481 157.945 971.555 154.795C968.63 151.645 963.868 150.07 957.267 150.07ZM1061.38 218.022C1063.18 222.672 1065.77 225.072 1069.15 225.222V227.472C1066.15 227.247 1062.13 227.135 1057.11 227.135C1050.66 227.135 1045.86 227.247 1042.71 227.472V225.222C1045.56 225.072 1047.58 224.735 1048.78 224.21C1050.06 223.61 1050.69 222.56 1050.69 221.06C1050.69 219.785 1050.24 218.022 1049.34 215.772L1042.48 197.321H1015.26L1010.64 209.247C1009.14 213.297 1008.39 216.372 1008.39 218.472C1008.39 220.797 1009.18 222.485 1010.76 223.535C1012.41 224.585 1014.88 225.147 1018.18 225.222V227.472C1013.91 227.247 1009.59 227.135 1005.24 227.135C1001.87 227.135 999.056 227.247 996.806 227.472V225.222C1000.56 224.322 1003.52 221.06 1005.69 215.435L1032.13 147.257H1033.93L1061.38 218.022ZM1041.58 195.071L1028.98 161.433L1016.16 195.071H1041.58ZM1099.67 150.07C1096.97 150.22 1094.99 150.52 1093.71 150.97C1092.51 151.42 1091.69 152.282 1091.24 153.557C1090.79 154.832 1090.56 156.895 1090.56 159.745V215.547C1090.56 218.397 1090.79 220.46 1091.24 221.735C1091.69 223.01 1092.51 223.872 1093.71 224.322C1094.99 224.772 1096.97 225.072 1099.67 225.222V227.472C1096.22 227.247 1091.46 227.135 1085.39 227.135C1078.94 227.135 1074.14 227.247 1070.99 227.472V225.222C1073.69 225.072 1075.64 224.772 1076.84 224.322C1078.11 223.872 1078.97 223.01 1079.42 221.735C1079.87 220.46 1080.1 218.397 1080.1 215.547V159.745C1080.1 156.895 1079.87 154.832 1079.42 153.557C1078.97 152.282 1078.11 151.42 1076.84 150.97C1075.64 150.52 1073.69 150.22 1070.99 150.07V147.82C1074.14 148.045 1078.94 148.157 1085.39 148.157C1091.39 148.157 1096.15 148.045 1099.67 147.82V150.07ZM1179.76 150.07C1177.14 150.22 1175.19 150.632 1173.91 151.307C1172.64 151.907 1171.77 152.957 1171.32 154.457C1170.87 155.882 1170.65 158.02 1170.65 160.87V228.035H1168.06L1120.81 155.02V214.422C1120.81 217.347 1121.03 219.522 1121.48 220.947C1122.01 222.372 1122.98 223.422 1124.41 224.097C1125.83 224.697 1128.05 225.072 1131.05 225.222V227.472C1128.35 227.247 1124.52 227.135 1119.57 227.135C1115.07 227.135 1111.58 227.247 1109.11 227.472V225.222C1111.73 225.072 1113.68 224.697 1114.96 224.097C1116.23 223.422 1117.1 222.372 1117.55 220.947C1118 219.447 1118.22 217.272 1118.22 214.422V159.745C1118.22 156.895 1118 154.832 1117.55 153.557C1117.1 152.282 1116.23 151.42 1114.96 150.97C1113.76 150.52 1111.81 150.22 1109.11 150.07V147.82C1111.58 148.045 1115.07 148.157 1119.57 148.157C1122.95 148.157 1125.87 148.045 1128.35 147.82L1168.06 209.022V160.87C1168.06 157.945 1167.8 155.77 1167.27 154.345C1166.82 152.92 1165.89 151.907 1164.46 151.307C1163.04 150.632 1160.82 150.22 1157.82 150.07V147.82C1160.52 148.045 1164.35 148.157 1169.3 148.157C1173.8 148.157 1177.29 148.045 1179.76 147.82V150.07Z" fill="white"/>
<path d="M566.063 322.01H587.326V326.228H561.563V289.102H566.063V322.01ZM624.771 326.228H619.989L616.052 315.934H599.232L595.295 326.228H590.57L605.026 289.102H610.37L624.771 326.228ZM600.864 311.715H614.421L607.614 293.434L600.864 311.715ZM632.317 326.228V289.102H645.537C649.924 289.102 653.131 290.021 655.156 291.859C657.181 293.696 658.193 296.19 658.193 299.34C658.193 301.215 657.65 302.921 656.562 304.459C655.474 305.959 653.937 306.915 651.949 307.328V307.384C654.162 307.797 655.906 308.809 657.181 310.422C658.493 311.997 659.15 313.797 659.15 315.822C659.15 318.972 657.968 321.503 655.606 323.416C653.243 325.291 649.868 326.228 645.48 326.228H632.317ZM636.818 322.01H646.549C649.212 322.01 651.181 321.466 652.456 320.378C653.768 319.291 654.424 317.772 654.424 315.822C654.424 313.834 653.768 312.315 652.456 311.265C651.181 310.178 649.212 309.634 646.549 309.634H636.818V322.01ZM636.818 305.415H645.593C650.843 305.415 653.468 303.39 653.468 299.34C653.468 295.327 650.843 293.321 645.593 293.321H636.818V305.415ZM680.993 288.54C684.256 288.54 687.069 289.215 689.431 290.565C691.794 291.877 693.763 293.827 695.338 296.415L691.569 299.34C690.181 296.94 688.606 295.252 686.844 294.277C685.119 293.265 683.018 292.759 680.543 292.759C678.556 292.759 676.906 293.04 675.593 293.602C674.318 294.165 673.381 294.915 672.781 295.852C672.181 296.752 671.881 297.784 671.881 298.946C671.881 300.259 672.293 301.421 673.118 302.434C673.943 303.409 675.593 304.178 678.068 304.74L686.112 306.54C689.675 307.328 692.15 308.528 693.538 310.14C694.963 311.715 695.675 313.684 695.675 316.047C695.675 318.147 695.075 320.022 693.875 321.672C692.713 323.285 691.063 324.541 688.925 325.441C686.787 326.341 684.275 326.791 681.387 326.791C678.687 326.791 676.306 326.435 674.243 325.722C672.218 324.972 670.474 323.978 669.012 322.741C667.549 321.503 666.349 320.116 665.412 318.578L669.349 315.372C670.062 316.797 670.981 318.053 672.106 319.141C673.231 320.228 674.581 321.072 676.156 321.672C677.768 322.272 679.606 322.572 681.668 322.572C683.581 322.572 685.231 322.347 686.619 321.897C688.044 321.41 689.131 320.716 689.881 319.816C690.631 318.878 691.006 317.753 691.006 316.441C691.006 315.241 690.612 314.172 689.825 313.234C689.037 312.259 687.556 311.528 685.381 311.04L676.662 309.072C674.374 308.547 672.518 307.834 671.093 306.934C669.706 305.996 668.693 304.909 668.055 303.671C667.455 302.396 667.155 301.028 667.155 299.565C667.155 297.577 667.699 295.759 668.787 294.109C669.912 292.421 671.506 291.071 673.568 290.058C675.668 289.046 678.143 288.54 680.993 288.54Z" fill="white"/>
<defs>
<filter id="filter0_f_22_78" x="201.905" y="201.904" width="72.3242" height="72.324" filterUnits="userSpaceOnUse" color-interpolation-filters="sRGB">
<feFlood flood-opacity="0" result="BackgroundImageFix"/>
<feBlend mode="normal" in="SourceGraphic" in2="BackgroundImageFix" result="shape"/>
<feGaussianBlur stdDeviation="8.036" result="effect1_foregroundBlur_22_78"/>
</filter>
</defs>
</svg>
